# File created by Blade
# Date/Time:  Tue Apr 07 20:35:22 2015
#---------------------------------------------------------
:version 1.10
:name HOM
:units
  mass 1.0
  length 1.000000
  angle deg
:documentation
     Acclaim Skeleton File
:root
   axis xyz
   order TX TY TZ RX RY RZ
   position 0.000000 0.000000 0.000000
   orientation 0 0 0
:bonedata
   begin
      id 1
      name Spine_dum
      direction 0.000000 1.000000 0.000000
      length 4.885285
      axis 0.0 0.0 0.0 xyz
   end
   begin
      id 2
      name LeftUpLeg_dum
      direction 1.000000 0.000000 0.000000
      length 2.672193
      axis 0.0 0.0 0.0 xyz
   end
   begin
      id 3
      name RightUpLeg_dum
      direction -1.000000 0.000000 0.000000
      length 2.672193
      axis 0.0 0.0 0.0 xyz
   end
   begin
      id 4
      name Spine
      direction 0.000000 1.000000 0.000000
      length 0.000000
      axis 0.0 0.0 0.0 xyz
      dof rx ry rz
   end
   begin
      id 5
      name Spine_dum1
      direction 0.000000 1.000000 0.000000
      length 16.494159
      axis 0.0 0.0 0.0 xyz
   end
   begin
      id 6
      name Spine_dum2
      direction 0.000000 1.000000 0.000000
      length 10.663448
      axis 0.0 0.0 0.0 xyz
   end
   begin
      id 7
      name Spine_dum3
      direction 0.000000 1.000000 0.000000
      length 10.663448
      axis 0.0 0.0 0.0 xyz
   end
   begin
      id 8
      name Head
      direction 0.000000 1.000000 0.000000
      length 4.527550
      axis 0.0 0.0 0.0 xyz
      dof rx ry rz
   end
   begin
      id 9
      name LeftShoulder
      direction 1.000000 0.000000 0.000000
      length 7.531907
      axis 0.0 0.0 -90.0 xyz
      dof rx ry rz
   end
   begin
      id 10
      name LeftArm
      direction 1.000000 0.000000 0.000000
      length 10.229199
      axis 0.0 0.0 -90.0 xyz
      dof rx ry rz
   end
   begin
      id 11
      name LeftForeArm
      direction 1.000000 0.000000 0.000000
      length 8.673495
      axis 0.0 0.0 -90.0 xyz
      dof ry rz rx
   end
   begin
      id 12
      name LeftHand
      direction 0.000000 0.000000 0.000000
      length 0.000000
      axis 0.0 0.0 -90.0 xyz
      dof rx ry rz
   end
   begin
      id 13
      name LeftHand_dum1
      direction 0.000000 0.000000 0.000000
      length 0.000000
      axis 0.0 0.0 -90.0 xyz
   end
   begin
      id 14
      name LeftHand_dum2
      direction 1.000000 0.000000 0.000000
      length 3.937000
      axis 0.0 0.0 -90.0 xyz
   end
   begin
      id 15
      name LeftHandThumb1
      direction 0.000000 0.000000 1.000000
      length 3.937000
      axis 0.0 0.0 -90.0 xyz
      dof rx rz ry
   end
   begin
      id 16
      name RightShoulder
      direction -1.000000 0.000000 0.000000
      length 7.531907
      axis 0.0 0.0 90.0 xyz
      dof rx ry rz
   end
   begin
      id 17
      name RightArm
      direction -1.000000 0.000000 0.000000
      length 10.229199
      axis 0.0 0.0 90.0 xyz
      dof rx ry rz
   end
   begin
      id 18
      name RightForeArm
      direction -1.000000 0.000000 0.000000
      length 8.673495
      axis 0.0 0.0 90.0 xyz
      dof ry rz rx
   end
   begin
      id 19
      name RightHand
      direction 0.000000 0.000000 0.000000
      length 0.000000
      axis 0.0 0.0 90.0 xyz
      dof rx ry rz
   end
   begin
      id 20
      name RightHand_dum1
      direction 0.000000 0.000000 0.000000
      length 0.000000
      axis 0.0 0.0 90.0 xyz
   end
   begin
      id 21
      name RightHand_dum2
      direction -1.000000 0.000000 0.000000
      length 3.937000
      axis 0.0 0.0 90.0 xyz
   end
   begin
      id 22
      name RightHandThumb1
      direction 0.000000 0.000000 1.000000
      length 3.937000
      axis 0.0 0.0 90.0 xyz
      dof rx rz ry
   end
   begin
      id 23
      name LeftUpLeg
      direction 0.000000 -1.000000 0.000000
      length 16.263388
      axis 0.0 0.0 0.0 xyz
      dof rx ry rz
   end
   begin
      id 24
      name LeftLeg
      direction 0.000000 -1.000000 0.000000
      length 14.328163
      axis 0.0 0.0 0.0 xyz
      dof rx ry rz
   end
   begin
      id 25
      name LeftFoot
      direction 0.000000 -0.258819 0.965926
      length 5.031290
      axis 15.0 0.0 0.0 xyz
      dof rx ry rz
   end
   begin
      id 26
      name LeftToeBase
      direction 0.000000 0.000000 1.000000
      length 2.952750
      axis 0.0 0.0 0.0 xyz
      dof rx ry rz
   end
   begin
      id 27
      name RightUpLeg
      direction 0.000000 -1.000000 0.000000
      length 16.263388
      axis 0.0 0.0 0.0 xyz
      dof rx ry rz
   end
   begin
      id 28
      name RightLeg
      direction 0.000000 -1.000000 0.000000
      length 14.328163
      axis 0.0 0.0 0.0 xyz
      dof rx ry rz
   end
   begin
      id 29
      name RightFoot
      direction 0.000000 -0.258819 0.965926
      length 5.031290
      axis 15.0 0.0 0.0 xyz
      dof rx ry rz
   end
   begin
      id 30
      name RightToeBase
      direction 0.000000 0.000000 1.000000
      length 2.952750
      axis 0.0 0.0 0.0 xyz
      dof rx ry rz
   end
:hierarchy
   begin
      root Spine_dum LeftUpLeg_dum RightUpLeg_dum
      Spine_dum Spine
      LeftUpLeg_dum LeftUpLeg
      RightUpLeg_dum RightUpLeg
      Spine Spine_dum1 Spine_dum2 Spine_dum3
      Spine_dum1 Head
      Spine_dum2 LeftShoulder
      Spine_dum3 RightShoulder
      LeftShoulder LeftArm
      LeftArm LeftForeArm
      LeftForeArm LeftHand
      LeftHand LeftHand_dum1 LeftHand_dum2
      LeftHand_dum1 LeftHandThumb1
      RightShoulder RightArm
      RightArm RightForeArm
      RightForeArm RightHand
      RightHand RightHand_dum1 RightHand_dum2
      RightHand_dum1 RightHandThumb1
      LeftUpLeg LeftLeg
      LeftLeg LeftFoot
      LeftFoot LeftToeBase
      RightUpLeg RightLeg
      RightLeg RightFoot
      RightFoot RightToeBase
   end

# File created by Blade
# Date/Time:  Tue Apr 07 20:35:32 2015
# Frame Rate: 120.000 fps
#------------------------------------------------------
:FULLY-SPECIFIED
:DEGREES
78
root -0.499398 33.174499 0.288971 11.488010 1.314000 -1.599611
Spine -14.915580 -4.356792 -0.043284
Head 19.029208 -5.378431 -0.102851
LeftShoulder -22.298033 44.241614 11.800954
LeftArm 60.496299 -37.886395 -73.724398
LeftForeArm 3.641920 -0.000000 6.451734
LeftHand 7.305221 -0.000000 9.352330
LeftHandThumb1 -26.253704 0.000000 33.147579
RightShoulder -7.570817 -2.388381 -24.200807
RightArm 8.603744 12.155975 56.263897
RightForeArm -11.456767 -0.000000 11.957757
RightHand 6.968740 -0.000000 -4.370851
RightHandThumb1 -24.326973 -0.000000 -32.862282
LeftUpLeg -5.452218 -7.850828 2.649695
LeftLeg 0.459622 -0.000000 -0.000000
LeftFoot -3.706601 5.877666 -15.187825
LeftToeBase -11.380903 -0.000000 0.000000
RightUpLeg -3.855535 -5.681925 3.925492
RightLeg -2.901052 -0.000000 0.000000
RightFoot -1.514668 -9.450016 3.259892
RightToeBase -4.887293 -0.000000 0.000000
79
root -0.500198 33.221085 0.305909 11.595268 1.453600 -1.552855
Spine -15.003081 -4.362946 -0.122830
Head 19.011686 -5.573388 0.015437
LeftShoulder -22.129793 44.119131 11.778040
LeftArm 60.167032 -36.902810 -74.256420
LeftForeArm 3.341391 -0.000000 6.745171
LeftHand 7.451497 -0.000000 9.406572
LeftHandThumb1 -26.253704 0.000000 33.147579
RightShoulder -7.691317 -2.821382 -23.852224
RightArm 8.575122 11.670576 56.986435
RightForeArm -11.795261 -0.000000 12.331418
RightHand 6.862872 0.000000 -4.790737
RightHandThumb1 -24.326973 -0.000000 -32.862282
LeftUpLeg -5.398662 -7.271788 2.516159
LeftLeg 0.054680 -0.000000 -0.000000
LeftFoot -2.987358 5.787994 -15.214881
LeftToeBase -11.385389 -0.000000 0.000000
RightUpLeg -3.864620 -5.500293 3.857795
RightLeg -3.088069 -0.000000 0.000000
RightFoot -0.951895 -9.681970 3.419931
RightToeBase -5.203899 -0.000000 0.000000
80
root -0.497815 33.266110 0.323360 11.675488 1.621405 -1.475135
Spine -15.073192 -4.447474 -0.208296
Head 19.023464 -5.718165 0.106702
LeftShoulder -22.044945 44.135982 11.610256
LeftArm 59.979053 -36.015009 -74.851093
LeftForeArm 3.269699 0.000000 7.042979
LeftHand 7.444086 -0.000000 9.421308
LeftHandThumb1 -26.253704 0.000000 33.147579
RightShoulder -7.772585 -3.249993 -23.573675
RightArm 8.554994 11.350055 57.839453
RightForeArm -12.153054 -0.000000 12.691244
RightHand 6.986383 -0.000000 -4.914129
RightHandThumb1 -24.326973 -0.000000 -32.862282
LeftUpLeg -5.336061 -6.709231 2.324162
LeftLeg -0.314892 -0.000000 0.000000
LeftFoot -2.300376 5.786935 -15.209130
LeftToeBase -11.726729 -0.000000 0.000000
RightUpLeg -3.885459 -5.488839 3.761625
RightLeg -3.185161 -0.000000 0.000000
RightFoot -0.471317 -9.740274 3.572075
RightToeBase -5.529279 -0.000000 0.000000
81
root -0.486695 33.310400 0.335676 11.764121 1.779874 -1.349888
Spine -15.131720 -4.493319 -0.335653
Head 19.000652 -5.900476 0.180690
LeftShoulder -21.909820 44.230219 11.421624
LeftArm 59.844730 -35.175098 -75.474934
LeftForeArm 3.383735 0.000000 7.376358
LeftHand 7.389376 -0.000000 9.187257
LeftHandThumb1 -26.253704 0.000000 33.147579
RightShoulder -7.885723 -3.592644 -23.313111
RightArm 8.442013 10.862323 58.656174
RightForeArm -12.202025 -0.000000 13.071309
RightHand 6.971473 -0.000000 -5.332583
RightHandThumb1 -24.326973 -0.000000 -32.862282
LeftUpLeg -5.329838 -5.938963 2.034588
LeftLeg -0.591186 -0.000000 0.000000
LeftFoot -1.610581 5.617587 -15.063069
LeftToeBase -11.588145 -0.000000 0.000000
RightUpLeg -3.965911 -5.575447 3.611196
RightLeg -3.186338 -0.000000 0.000000
RightFoot -0.066633 -9.695524 3.644197
RightToeBase -5.758854 -0.000000 0.000000
82
root -0.479802 33.353072 0.348287 11.861495 1.947923 -1.231214
Spine -15.205266 -4.580530 -0.451143
Head 19.002904 -6.025115 0.242266
LeftShoulder -21.850305 44.411494 11.128139
LeftArm 59.688209 -34.267191 -75.821707
LeftForeArm 3.325795 -0.000000 7.587175
LeftHand 7.376114 -0.000000 9.232851
LeftHandThumb1 -26.253704 0.000000 33.147579
RightShoulder -7.962242 -3.833880 -23.094446
RightArm 8.222602 10.342155 59.524575
RightForeArm -12.200247 -0.000000 13.438188
RightHand 7.165454 -0.000000 -5.758460
RightHandThumb1 -24.326973 -0.000000 -32.862282
LeftUpLeg -5.315081 -5.320369 1.742855
LeftLeg -0.913106 -0.000000 0.000000
LeftFoot -0.915749 5.696260 -14.806606
LeftToeBase -11.773901 -0.000000 0.000000
RightUpLeg -4.021567 -5.598666 3.466307
RightLeg -3.245486 -0.000000 0.000000
RightFoot 0.349139 -9.696786 3.711194
RightToeBase -6.050678 -0.000000 0.000000
83
root -0.471094 33.393658 0.353919 11.952628 2.135828 -1.144355
Spine -15.243206 -4.727053 -0.492815
Head 18.940802 -6.122809 0.250691
LeftShoulder -21.800188 44.474535 10.835730
LeftArm 59.441044 -33.405222 -76.216428
LeftForeArm 3.782269 -0.000000 7.818844
LeftHand 7.274866 0.000000 9.000558
LeftHandThumb1 -26.253704 0.000000 33.147579
RightShoulder -8.009869 -3.993593 -22.945167
RightArm 7.947847 9.957757 60.471274
RightForeArm -12.129495 -0.000000 13.865884
RightHand 7.368781 -0.000000 -5.533571
RightHandThumb1 -24.326973 -0.000000 -32.862282
LeftUpLeg -5.336495 -4.868774 1.505928
LeftLeg -1.134967 -0.000000 0.000000
LeftFoot -0.456635 5.826162 -14.618721
LeftToeBase -11.493496 -0.000000 0.000000
RightUpLeg -4.112762 -5.669789 3.360294
RightLeg -3.244369 -0.000000 0.000000
RightFoot 0.715286 -9.691396 3.814081
RightToeBase -6.312579 -0.000000 0.000000
84
root -0.465529 33.429211 0.361802 12.014925 2.368641 -1.089273
Spine -15.250917 -4.909821 -0.498476
Head 18.874588 -6.217300 0.265065
LeftShoulder -21.758025 44.579138 10.551471
LeftArm 59.137700 -32.448149 -76.461012
LeftForeArm 4.100507 -0.000000 8.020323
LeftHand 7.229599 0.000000 8.924775
LeftHandThumb1 -26.253704 0.000000 33.147579
RightShoulder -8.056987 -4.181244 -22.788025
RightArm 7.716105 9.652368 61.424937
RightForeArm -12.000513 -0.000000 14.150519
RightHand 7.534066 -0.000000 -5.512697
RightHandThumb1 -24.326973 -0.000000 -32.862282
LeftUpLeg -5.368212 -4.458839 1.301908
LeftLeg -1.270601 -0.000000 0.000000
LeftFoot -0.050892 5.946951 -14.377807
LeftToeBase -11.404029 -0.000000 0.000000
RightUpLeg -4.159159 -5.817597 3.303694
RightLeg -3.260886 -0.000000 0.000000
RightFoot 1.052152 -9.649124 3.919656
RightToeBase -6.468293 -0.000000 0.000000
85
root -0.466190 33.460976 0.365750 12.111926 2.576653 -1.088050
Spine -15.284526 -5.092847 -0.457691
Head 18.781104 -6.272467 0.311089
LeftShoulder -21.744978 44.608424 10.294814
LeftArm 58.711895 -31.420149 -76.600736
LeftForeArm 4.428728 -0.000000 8.268427
LeftHand 7.058352 -0.000000 8.840531
LeftHandThumb1 -26.253704 0.000000 33.147579
RightShoulder -8.080043 -4.424591 -22.586213
RightArm 7.569571 9.481528 62.373486
RightForeArm -11.997691 -0.000000 14.436534
RightHand 7.630184 -0.000000 -5.626975
RightHandThumb1 -24.326973 -0.000000 -32.862282
LeftUpLeg -5.443886 -4.218368 1.168193
LeftLeg -1.388903 -0.000000 0.000000
LeftFoot 0.197989 6.281677 -14.107565
LeftToeBase -11.194174 -0.000000 0.000000
RightUpLeg -4.240073 -5.895257 3.307302
RightLeg -3.296477 -0.000000 0.000000
RightFoot 1.384383 -9.645153 3.980941
RightToeBase -6.663075 -0.000000 0.000000
